<svg width="49" height="49" viewBox="0 0 49 49" fill="none" xmlns="http://www.w3.org/2000/svg">
<circle cx="24.5" cy="24.5" r="24.5" fill="url(#paint0_linear_201_20)"/>
<path d="M16.7379 43.6155C16.221 35.4955 20.5534 19.1579 42.0182 18.7677C40.8059 41.5097 24.6596 44.8087 16.7379 43.6155Z" fill="url(#paint1_linear_201_20)"/>
<path d="M24.1231 30.0444C20.09 26.071 14.8701 15.3618 26.2554 4.31211C36.1178 16.7846 28.9432 26.6639 24.1231 30.0444Z" fill="url(#paint2_linear_201_20)"/>
<path fill-rule="evenodd" clip-rule="evenodd" d="M23.1347 27.8919C21.1255 29.7102 19.8933 31.8187 19.1954 33.9109C14.226 32.0995 8.4902 27.137 9.48659 16.1625C18.5548 17.9034 22.1112 23.0829 23.1347 27.8919Z" fill="url(#paint3_linear_201_20)"/>
<defs>
<linearGradient id="paint0_linear_201_20" x1="24.5" y1="0" x2="24.5" y2="49" gradientUnits="userSpaceOnUse">
<stop stop-color="#009278"/>
<stop offset="0.526042" stop-color="#005142"/>
<stop offset="1" stop-color="#002D25"/>
</linearGradient>
<linearGradient id="paint1_linear_201_20" x1="27.138" y1="21.3456" x2="31.7584" y2="41.6544" gradientUnits="userSpaceOnUse">
<stop offset="0.463542" stop-color="#6ECD6C"/>
<stop offset="0.880208" stop-color="#46FF42" stop-opacity="0.223301"/>
<stop offset="1" stop-color="#A9FCA7" stop-opacity="0"/>
</linearGradient>
<linearGradient id="paint2_linear_201_20" x1="19.4296" y1="13.1755" x2="31.3097" y2="21.4318" gradientUnits="userSpaceOnUse">
<stop offset="0.046875" stop-color="#6ECD6C"/>
<stop offset="0.546875" stop-color="#6ECD6C"/>
<stop offset="1" stop-color="#6ECD6C" stop-opacity="0"/>
</linearGradient>
<linearGradient id="paint3_linear_201_20" x1="10.0265" y1="26.1065" x2="22.8981" y2="24.7711" gradientUnits="userSpaceOnUse">
<stop offset="0.59375" stop-color="#6ECD6C"/>
<stop offset="1" stop-color="#6ECD6C" stop-opacity="0"/>
</linearGradient>
</defs>
</svg>
